<svg width="140" height="8" viewBox="0 0 140 8" fill="none" xmlns="http://www.w3.org/2000/svg">
<path fill-rule="evenodd" clip-rule="evenodd" d="M135.91 4.07365C135.91 2.43219 135.126 1.73251 133.288 1.73251H116.607V6.47624H133.288C135.102 6.47624 135.91 5.70136 135.91 4.07365ZM139.69 4.07365C139.69 6.46432 137.435 7.80316 135.315 7.80316H113.032V0.405588H135.315C137.435 0.405588 139.69 1.69124 139.69 4.07365ZM72.5523 1.73251H92.8083V0.405588H70.5268C68.4052 0.405588 66.1518 1.69124 66.1518 4.07365C66.1518 6.46523 68.4052 7.80408 70.5268 7.80408H92.8083V6.47624H72.5533C70.7392 6.47624 69.9302 5.70136 69.9302 4.07365C69.9302 2.43219 70.714 1.73251 72.5523 1.73251ZM5.97658 6.45881C4.31486 6.45881 3.5747 5.79398 3.5747 4.30291V0.385413H0V4.30291C0 6.56519 2.13415 7.78757 4.14316 7.78757H25.8067V6.4579H5.97561L5.97658 6.45881ZM55.2744 0.405588V6.47991H38.3836C36.7229 6.47991 35.9827 5.81507 35.9827 4.32308V0.405588H32.408V4.32308C32.408 6.58628 34.5421 7.80775 36.5512 7.80775H58.8501V0.404671H55.2754L55.2744 0.405588ZM101.184 7.97281H104.655V0.212097H101.184V7.97281Z" fill="white"/>
</svg>
